<svg width="45" height="45" viewBox="0 0 45 45" fill="none" xmlns="http://www.w3.org/2000/svg">
<path id="path380" d="M9.13078 0C4.08851 0 0.00116882 4.08714 0 9.12979V35.8696C0 40.9129 4.08851 45 9.12962 45H9.13078H35.8698C40.9126 45 45 40.9129 45 35.8708V9.13093C45 4.08769 40.9126 0 35.8698 0H9.13078ZM7.39101 18.6722C7.38516 13.7698 11.3545 9.79257 16.2559 9.78673C18.5941 9.78673 20.84 10.7068 22.5038 12.3514C25.9915 8.90607 31.6118 8.94044 35.0557 12.429C36.6979 14.0912 37.6178 16.335 37.6166 18.6722L37.6107 35.2127H32.3078V18.6722C32.2757 16.695 30.6487 15.1183 28.6716 15.1498C26.739 15.1808 25.1804 16.7395 25.1494 18.6722V35.2127H19.8488V18.6722C19.8167 16.6962 18.1897 15.1188 16.2138 15.151C14.2823 15.1808 12.7237 16.7395 12.6928 18.6722V35.2127H7.39101V18.6722Z" fill="url(#paint0_linear_17_3541)"/>
<defs>
<linearGradient id="paint0_linear_17_3541" x1="9.27921" y1="14.8672" x2="49.0287" y2="37.8148" gradientUnits="userSpaceOnUse">
<stop stop-color="#651FFF"/>
<stop offset="0.00396825" stop-color="#651FFF"/>
<stop offset="1" stop-color="#2979FF"/>
</linearGradient>
</defs>
</svg>
